<?xml version="1.0" encoding="UTF-8" standalone="no"?>
<!DOCTYPE svg PUBLIC "-//W3C//DTD SVG 1.1//EN" "http://www.w3.org/Graphics/SVG/1.1/DTD/svg11.dtd">
<svg width="100%" height="100%" viewBox="0 0 170 210" version="1.1" xmlns="http://www.w3.org/2000/svg" xmlns:xlink="http://www.w3.org/1999/xlink" xml:space="preserve" xmlns:serif="http://www.serif.com/" style="fill-rule:evenodd;clip-rule:evenodd;stroke-linecap:round;stroke-linejoin:round;stroke-miterlimit:1.5;">
    <g transform="matrix(1,0,0,1,-509,-191)">
        <g id="PersonIcon">
        </g>
        <path d="M561.115,282.461L560.041,233.713C565.283,199.687 619.193,194.719 630.049,225.767C631.229,243.584 631.612,261.899 631.266,280.671C608.981,284.455 585.309,284.215 561.115,282.461ZM583.366,232.963L582.876,233.319C583.509,233.636 583.331,234.846 583.806,234.751C584.051,234.702 584.577,233.84 584.164,232.603C584.139,232.527 583.411,231.842 583.366,232.963Z" style="fill:white;"/>
        <path d="M560.972,287.901C590.324,288.874 615.373,288.599 631.552,285.753C631.48,299.742 629.792,311.38 632.554,329.49C608.51,328.529 584.348,328.853 560.113,329.991C561.528,315.961 561.656,301.931 560.972,287.901Z" style="fill:white;"/>
        <path d="M635.128,224.877C635.029,224.885 634.93,224.892 634.83,224.899L636.083,269.889L659.973,234.903C659.973,234.903 661.388,222.876 662.658,222.644C666.981,221.857 665.127,229.606 665.127,229.606C665.127,229.606 670.279,226.839 671.248,227.387C673.619,228.728 669.905,232.04 669.905,232.04C669.905,232.04 675.37,230.161 675.99,231.324C677.889,234.886 664.603,238.461 664.358,237.677L636.172,276.331L637.335,333.061L614.966,333.687L614.16,376.01L625.166,388.09C642.291,384.944 655.165,385.395 667.311,386.461C662.257,389.414 657.898,393.619 653.799,398.291C644.088,395.617 634.377,393.014 624.665,393.62L613.623,381.558L610.939,390.148L608.076,389.701L611.476,334.582L578.011,334.313L582.791,390.445L578.995,390.399L577.993,381.021C575.134,385.773 572.166,390.517 567.111,393.599C566.53,393.322 565.616,393.51 563.462,392.188C540.386,395.11 519.132,397.155 511.564,392.618C513.487,387.123 534.675,385.83 567.972,387.177L577.277,373.219L573.412,334.206L555.015,334.278L555.874,275.723L527.67,238.715L519.295,235.565C519.036,235.617 514.888,232.281 515.144,231.413C515.473,230.298 520.804,231.014 521.141,231.453C521.151,231.474 521.156,231.485 521.156,231.485C521.154,231.474 521.149,231.464 521.141,231.453C520.946,231.054 519.018,227.051 519.868,226.689C520.736,226.318 526.186,229.025 526.51,229.187C526.515,229.191 526.52,229.193 526.525,229.194C526.525,229.194 526.52,229.192 526.51,229.187C526.224,228.936 526.517,222.689 527.957,222.322C530.728,221.616 531.892,233.563 530.391,235.064L555.874,269.782L555.78,233.187C558.841,223.26 561.462,217.219 564.564,213.158L573.627,206.986C570.942,206.929 567.917,209.221 565.483,212.027C565.172,212.386 564.865,212.762 564.564,213.158L555.297,208.626C545.57,212.897 544.969,216.451 552.231,219.386C554.827,217.224 552.693,216.378 551.298,213.817C561.609,211.005 558.238,224.597 552.364,223.289C536.131,220.719 544.452,209.111 548.82,204.932C553.128,204.14 557.435,204.674 561.742,206.936C565.77,202.203 570.931,201.718 576.487,202.714C575.584,190.221 579.672,189.048 586.597,194.308C596.543,189.588 599.028,192.659 595.994,201.491C603.871,200.865 609.095,201.676 612.39,203.532C619.922,201.105 626.02,201.946 630.116,207.345C652.269,201.556 657.423,223.107 635.128,224.877ZM641.624,212.967C639.732,215.705 638.334,218.166 638.111,219.969C643.925,219.276 646.284,217.076 642.245,212.082C642.033,212.38 641.826,212.675 641.624,212.967ZM560.972,287.901C561.656,301.931 561.528,315.961 560.113,329.991C584.348,328.853 608.51,328.529 632.554,329.49C629.792,311.38 631.48,299.742 631.552,285.753C615.373,288.599 590.324,288.874 560.972,287.901ZM561.115,282.461C585.309,284.215 608.981,284.455 631.266,280.671C631.612,261.899 631.229,243.584 630.049,225.767C619.193,194.719 565.283,199.687 560.041,233.713L561.115,282.461Z" style="fill:white;"/>
        <g id="InterestingIcon" opacity="0.46">
            <g id="body-out" serif:id="body out">
                <path d="M578.995,390.399L577.993,381.021C575.134,385.773 572.166,390.517 567.111,393.599C566.53,393.322 565.616,393.51 563.462,392.188C540.386,395.11 519.132,397.155 511.564,392.618C513.487,387.123 534.675,385.83 567.972,387.177L577.277,373.219L573.412,334.206L555.015,334.278L555.874,275.723L527.67,238.715L519.295,235.565C519.036,235.617 514.888,232.281 515.144,231.413C515.481,230.271 521.07,231.05 521.156,231.485C521.156,231.485 518.973,227.07 519.868,226.689C520.763,226.307 526.525,229.194 526.525,229.194C526.215,229.15 526.492,222.695 527.957,222.322C530.728,221.616 531.892,233.563 530.391,235.064L555.874,269.782L555.78,233.187C559.139,222.295 561.967,216.08 565.483,212.027C567.917,209.221 570.942,206.929 573.627,206.986L564.564,213.158L555.297,208.626C545.57,212.897 544.969,216.451 552.231,219.386C554.827,217.224 552.693,216.378 551.298,213.817C561.609,211.005 558.238,224.597 552.364,223.289C536.131,220.719 544.452,209.111 548.82,204.932C553.128,204.14 557.435,204.674 561.742,206.936C565.77,202.203 570.931,201.718 576.487,202.714C575.584,190.221 579.672,189.048 586.597,194.308C596.543,189.588 599.028,192.659 595.994,201.491C603.871,200.865 609.095,201.676 612.39,203.532C619.922,201.105 626.02,201.946 630.116,207.345C652.367,201.53 657.468,223.299 634.83,224.899L636.083,269.889L659.973,234.903C659.973,234.903 661.388,222.876 662.658,222.644C666.981,221.857 665.127,229.606 665.127,229.606C665.127,229.606 670.279,226.839 671.248,227.387C673.619,228.728 669.905,232.04 669.905,232.04C669.905,232.04 675.37,230.161 675.99,231.324C677.889,234.886 664.603,238.461 664.358,237.677L636.172,276.331L637.335,333.061L614.966,333.687L614.16,376.01L625.166,388.09C642.291,384.944 655.165,385.395 667.311,386.461C662.257,389.414 657.898,393.619 653.799,398.291C644.088,395.617 634.377,393.014 624.665,393.62L613.623,381.558L610.939,390.148L608.076,389.701L611.476,334.582L578.011,334.313L582.791,390.445L578.995,390.399Z" style="fill:none;stroke:black;stroke-width:2px;"/>
                <path d="M635.128,224.877L628.729,212.932C633.809,208.772 638.416,207.798 642.245,212.082C646.284,217.076 643.925,219.276 638.111,219.969C638.358,217.974 640.043,215.173 642.245,212.082" style="fill:none;stroke:black;stroke-width:2px;"/>
                <path d="M632.046,219.093C633.236,214.199 636.29,211.919 641.624,212.967" style="fill:none;stroke:black;stroke-width:2px;"/>
            </g>
            <g id="cloth">
                <path d="M560.972,287.901C561.656,301.931 561.528,315.961 560.113,329.991C584.348,328.853 608.51,328.529 632.554,329.49C629.792,311.38 631.48,299.742 631.552,285.753C615.373,288.599 590.324,288.874 560.972,287.901" style="fill:none;stroke:black;stroke-width:2px;"/>
                <path d="M561.115,282.461C585.309,284.215 608.981,284.455 631.266,280.671C631.612,261.899 631.229,243.584 630.049,225.767C619.193,194.719 565.283,199.687 560.041,233.713L561.115,282.461Z" style="fill:none;stroke:black;stroke-width:2px;"/>
            </g>
            <g id="body">
                <path d="M583.663,232.746C583.657,232.802 583.465,234.533 583.377,233.391C583.246,231.687 584.136,232.519 584.164,232.603C584.577,233.84 584.051,234.702 583.806,234.751C583.331,234.846 583.509,233.636 582.876,233.319"/>
                <path d="M581.512,231.664L581.945,230.951L582.598,230.452L583.178,230.24L583.725,230.182L584.26,230.246L584.825,230.446L585.7,231.096L586.199,231.925C586.666,233.327 586.434,234.474 586.123,235.187L585.707,235.897L585.252,236.367L584.754,236.68L584.227,236.854L583.302,236.857L582.402,236.47L582.014,236.126L581.681,235.664C581.59,235.502 581.447,235.093 581.363,234.839C580.725,234.204 580.533,233.208 580.958,232.36C581.096,232.083 581.287,231.849 581.512,231.664Z" style="fill:rgb(3,149,215);"/>
                <path d="M605.609,232.483C605.688,232.076 605.884,231.688 606.199,231.373C607.036,230.536 608.395,230.536 609.232,231.373L609.733,231.972L610.039,232.557L610.204,233.44L610.095,234.157L609.729,234.868L609.049,235.484L608.43,235.768C608.178,235.849 607.867,235.909 607.552,235.948C606.377,236.095 605.304,235.261 605.157,234.086C605.083,233.489 605.262,232.919 605.609,232.483Z" style="fill:rgb(3,149,215);"/>
                <path d="M613.159,249.925C614.226,249.413 615.508,249.864 616.02,250.932C616.532,251.999 616.08,253.281 615.013,253.793C614.134,254.214 612.374,255.053 610.995,255.531C608.322,256.459 602.47,258.669 598.833,259.402C595.516,260.069 591.398,260.262 588.698,259.929C586.439,259.65 583.738,258.032 582.369,257.367C581.626,257.007 580.99,256.436 580.33,255.959C579.703,255.505 578.931,254.999 578.471,254.566C578.006,254.129 577.54,253.407 577.317,253.038C576.706,252.025 577.032,250.705 578.046,250.094C579.059,249.483 580.379,249.809 580.99,250.823C581.077,250.967 581.229,251.271 581.411,251.442C581.762,251.773 582.366,252.137 582.844,252.483C583.306,252.817 583.722,253.256 584.242,253.509C585.331,254.037 587.426,255.45 589.223,255.672C591.557,255.959 595.118,255.774 597.986,255.197C601.459,254.498 607.037,252.365 609.589,251.479C610.815,251.054 612.377,250.3 613.159,249.925Z" style="fill:rgb(3,149,215);"/>
                <path d="M591.307,295.862C591.285,295.888 591.203,295.988 591.16,296.055C591.013,296.279 590.875,296.543 590.728,296.788C590.472,297.217 590.174,297.586 589.848,297.82C589.665,298.073 589.027,298.938 588.513,299.433C588.147,299.785 587.758,300.045 587.415,300.16C585.093,300.934 582.898,299.801 581.233,298.336C580.019,297.268 578.776,295.743 578.659,295.597C578.253,295.319 578.105,294.777 578.331,294.326C578.578,293.832 579.179,293.632 579.672,293.878L579.908,294.031C579.987,294.094 580.089,294.192 580.21,294.323C580.634,294.786 581.461,295.873 582.554,296.835C583.707,297.849 585.175,298.798 586.783,298.262C586.904,298.222 587.019,298.097 587.148,297.971C587.487,297.639 587.812,297.208 588.038,296.902C588.253,296.611 588.417,296.403 588.474,296.348L588.728,296.169C588.796,296.135 588.83,296.045 588.884,295.965C589.033,295.743 589.169,295.485 589.309,295.247C589.622,294.715 589.99,294.285 590.374,294.093C590.868,293.846 591.469,294.047 591.716,294.54C591.956,295.021 591.773,295.603 591.307,295.862Z" style="fill:rgb(3,149,215);"/>
                <path d="M599.777,295.588C599.722,295.039 600.123,294.548 600.672,294.494C601.221,294.439 601.712,294.84 601.767,295.389C601.779,295.511 601.763,295.617 601.825,295.723C601.911,295.87 602.09,296.001 602.396,296.201C602.793,296.463 603.356,296.772 604.154,297.171C605.326,297.757 606.204,298.084 606.872,298.22C607.318,298.311 607.623,298.324 607.838,298.227C608.002,298.153 608.057,297.996 608.115,297.863C608.221,297.619 608.301,297.378 608.395,297.189C609.082,295.815 609.324,295.976 610.257,294.111C610.503,293.617 611.105,293.417 611.598,293.664C612.092,293.91 612.292,294.512 612.045,295.005C611.113,296.87 610.871,296.709 610.184,298.083C610.073,298.306 609.986,298.607 609.839,298.892C609.598,299.359 609.244,299.787 608.66,300.051C607.832,300.424 606.275,300.468 603.259,298.96C600.913,297.787 600.259,297.106 600,296.544C599.86,296.24 599.812,295.943 599.777,295.588Z" style="fill:rgb(3,149,215);"/>
                <path d="M621.173,241.62C620.621,241.62 620.173,241.172 620.173,240.62C620.173,240.069 620.621,239.62 621.173,239.62L622.032,239.62C622.584,239.62 623.032,240.069 623.032,240.62C623.032,241.172 622.584,241.62 622.032,241.62L621.173,241.62Z" style="fill:rgb(3,149,215);"/>
                <path d="M618.45,243.842C618.45,244.394 618.002,244.842 617.45,244.842C616.898,244.842 616.45,244.394 616.45,243.842L616.45,242.625C616.45,242.073 616.898,241.625 617.45,241.625C618.002,241.625 618.45,242.073 618.45,242.625L618.45,243.842Z" style="fill:rgb(3,149,215);"/>
                <path d="M622.505,246.64C622.145,247.059 621.514,247.108 621.094,246.748C620.675,246.389 620.627,245.757 620.986,245.338L621.416,244.837C621.775,244.418 622.407,244.37 622.826,244.729C623.245,245.088 623.293,245.72 622.934,246.139L622.505,246.64Z" style="fill:rgb(3,149,215);"/>
                <path d="M577.004,243.341C577.004,243.892 576.556,244.341 576.004,244.341C575.452,244.341 575.004,243.892 575.004,243.341L575.004,242.768C575.004,242.216 575.452,241.768 576.004,241.768C576.556,241.768 577.004,242.216 577.004,242.768L577.004,243.341Z" style="fill:rgb(3,149,215);"/>
                <path d="M571.748,239.494C571.853,239.498 572.083,239.513 572.464,239.555C573.012,239.616 573.408,240.111 573.347,240.659C573.286,241.208 572.791,241.604 572.243,241.543C571.636,241.475 571.514,241.486 571.46,241.478L571.119,241.372C570.625,241.125 570.425,240.524 570.671,240.03C570.875,239.622 571.321,239.415 571.748,239.494Z" style="fill:rgb(3,149,215);"/>
                <path d="M571.767,244.758C572.231,245.016 572.414,245.598 572.174,246.078C571.949,246.527 571.432,246.734 570.969,246.582C570.734,246.709 570.449,246.743 570.176,246.651C569.652,246.477 569.369,245.91 569.543,245.387C569.59,245.247 569.64,245.134 569.69,245.043L569.846,244.809L570.039,244.615L570.304,244.451L570.671,244.353L571.008,244.366L571.43,244.522C571.533,244.58 571.726,244.726 571.767,244.758Z" style="fill:rgb(3,149,215);"/>
            </g>
        </g>
    </g>
</svg>
