<?xml version="1.0" encoding="UTF-8" standalone="no"?>
<!DOCTYPE svg PUBLIC "-//W3C//DTD SVG 1.1//EN" "http://www.w3.org/Graphics/SVG/1.1/DTD/svg11.dtd">
<svg width="100%" height="100%" viewBox="0 0 242 240" version="1.1" xmlns="http://www.w3.org/2000/svg" xmlns:xlink="http://www.w3.org/1999/xlink" xml:space="preserve" xmlns:serif="http://www.serif.com/" style="fill-rule:evenodd;clip-rule:evenodd;stroke-linecap:round;stroke-linejoin:round;stroke-miterlimit:1.5;">
    <g transform="matrix(1,0,0,1,-96,-161)">
        <g id="PersonIcon" transform="matrix(0.775512,0,0,0.775512,39.9996,105.603)">
            <g id="outline">
                <path d="M169.042,355.229C158.488,356.278 145.521,360.953 136.496,362.922C132.313,363.835 105.916,367.406 102.095,367.448C94.482,367.53 87.041,368.006 82.797,367.275C81.77,367.098 80.472,366.615 79.235,366.049C69.517,361.612 100.55,356.037 132.11,350.767C159.222,346.24 191.041,349.57 191.041,349.57C201.398,349.078 205.817,346.387 205.688,336.473L204.45,271.583C204.45,271.583 189.975,272.384 185.997,272.322C180.647,272.239 180.626,271.186 180.347,270.242C178.883,265.284 180.836,219.254 180.2,216.286C179.973,215.226 159.022,199.268 150.526,191.274C149.492,190.3 132.667,188.875 132.984,187.664C133.055,187.391 131.622,184.246 132.987,182.754C134.328,181.287 139.224,181.646 138.924,181.21C134.996,175.507 140.166,173.141 148.122,177.53C148.42,177.694 148.299,176.362 148.576,174.214C148.739,172.95 147.584,170.964 147.89,169.673C148.348,167.738 150.351,166.998 151.075,167.44C155.077,169.881 156.054,180.577 155.853,185.291C155.708,188.686 160.761,190.52 163.593,192.853C165.502,194.425 178.254,207.49 179.942,206.87C180.499,206.665 180.279,205.41 180.255,204.73C179.971,196.81 178.391,175.524 178.349,156.928C176.426,157.062 166.502,157.899 166.8,152.633C167.346,147.629 178.239,150.231 178.391,149.37C178.829,138.831 180.625,129.581 183.546,121.811C175.128,117.504 174.357,114.918 173.839,107.251C173.629,100.979 177.864,98.917 182.745,99.36C184.992,94.514 186.774,86.983 193.059,89.596C194.948,79.954 199.238,76.972 206.249,87.995C211.296,81.794 217.128,80.879 223.606,85.582C231.352,77.938 237.739,76.976 241.658,87.012C249.522,78.895 256.393,76.618 258.996,94.033C271.619,84.281 282.243,79.128 274.049,106.334C289.421,105.548 291.773,113.175 283.517,126.641C284.08,132.601 285.033,144.485 285.522,151.431C297.781,151.765 320.916,148.333 316.561,182.813C322.144,187.282 325.058,194.673 315.37,200.722C318.024,223.649 321.951,251.917 315.352,258.385C309.436,265.853 292.832,266.032 277.707,263.85C276.799,266.628 275.543,269.688 273.655,271.485L253.408,271.728C253.226,292.12 251.122,309.765 253.307,333.537C254.615,339.678 259.349,342.994 267.518,343.955C294.143,347.79 327.498,346.881 350.714,346.761C367.241,346.675 376.674,349.793 376.853,354.887C374.087,367.149 347.756,374.384 328.095,373.609C338.05,367.291 347.839,361.217 346.126,358.983C336.55,351.162 296.498,354.012 263.516,354.185C255.965,361.729 245.918,344.188 246.705,340.823L246.267,271.059L211.145,271.667L212.093,341.971C209.449,348.373 205.134,354.354 199.312,356.079C192.242,358.175 179.26,354.212 169.042,355.229Z" style="fill:none;stroke:black;stroke-width:1.29px;"/>
                <g id="face">
                    <g transform="matrix(1.28947,0,0,1.28947,-51.5783,-136.172)">
                        <ellipse cx="230.672" cy="221.774" rx="2.337" ry="1.889" style="fill:rgb(255,242,242);"/>
                    </g>
                    <g transform="matrix(1.28947,0,0,1.28947,-51.5783,-136.172)">
                        <ellipse cx="229.519" cy="215.541" rx="2.359" ry="1.91" style="fill:rgb(255,242,242);"/>
                    </g>
                    <g transform="matrix(1.28947,0,0,1.28947,-51.5783,-136.172)">
                        <ellipse cx="224.289" cy="218.316" rx="2.295" ry="2.017" style="fill:rgb(255,242,242);"/>
                    </g>
                    <g transform="matrix(1.28947,0,0,1.28947,-51.5783,-136.172)">
                        <ellipse cx="199.129" cy="215.565" rx="3.982" ry="4.148" style="fill:rgb(255,242,242);"/>
                    </g>
                    <g transform="matrix(1.12353,0,0,1.08743,-25.9212,-12.8649)">
                        <ellipse cx="205.703" cy="142.223" rx="4.57" ry="4.919" style="fill:none;stroke:rgb(13,2,2);stroke-width:1.17px;"/>
                    </g>
                    <g transform="matrix(0.968468,0,0,1.23529,7.58637,-34.8098)">
                        <ellipse cx="237.539" cy="145.836" rx="3.055" ry="2.106" style="fill:none;stroke:rgb(13,2,2);stroke-width:1.16px;"/>
                    </g>
                    <g transform="matrix(0.95671,0,0,1.06548,10.4475,-9.9126)">
                        <ellipse cx="244.517" cy="142.354" rx="3.179" ry="2.312" style="fill:none;stroke:rgb(13,2,2);stroke-width:1.27px;"/>
                    </g>
                    <g transform="matrix(1.02336,0,0,1.07927,-5.81495,-12.0675)">
                        <ellipse cx="245.935" cy="149.979" rx="2.945" ry="2.257" style="fill:none;stroke:rgb(13,2,2);stroke-width:1.23px;"/>
                    </g>
                </g>
                <path d="M186.313,173.491C189.26,174.76 208.308,175.946 214.697,172.269C210.708,177.027 212.549,180.206 200.454,181.344C197.515,181.62 190.65,180.323 187.427,179.394C185.946,178.968 186.238,173.87 186.313,173.491Z" style="fill:none;stroke:black;stroke-width:1.29px;"/>
                <path d="M180.992,108.683C182.13,110.39 183.706,115.024 185.946,115.771C184.935,115.705 184.906,115.852 183.985,115.392C180.934,113.866 181.094,108.99 180.992,108.683Z" style="fill:none;stroke:rgb(13,2,2);stroke-width:1.29px;"/>
                <path d="M189.766,109.956C188.518,106.894 188.536,103.832 189.766,100.769C190.701,102.865 191.583,104.992 192.121,107.326C192.176,107.568 192.097,107.821 191.914,107.988C191.265,108.583 189.766,109.956 189.766,109.956Z" style="fill:none;stroke:rgb(13,2,2);stroke-width:1.29px;"/>
                <path d="M198.918,100.597L199.675,91.445L202.668,98.327L198.918,100.597Z" style="fill:none;stroke:rgb(13,2,2);stroke-width:1.29px;"/>
                <path d="M210.926,94.851C211.72,90.87 213.973,89.303 217.428,89.725C218.381,93.145 215.662,94.551 210.926,94.851Z" style="fill:none;stroke:rgb(13,2,2);stroke-width:1.29px;"/>
                <path d="M226.959,92.581C228.757,89.897 231.137,87.879 234.219,86.663C234.877,88.124 235.384,89.812 235.492,92.099C231.36,92.539 228.975,92.6 226.959,92.581Z" style="fill:none;stroke:rgb(13,2,2);stroke-width:1.29px;"/>
                <path d="M246.846,92.718C247.803,90.523 249.272,88.881 251.422,87.97L251.422,92.959L246.846,92.718Z" style="fill:none;stroke:rgb(13,2,2);stroke-width:1.29px;"/>
                <path d="M265.425,98.155L270.105,94.473L268.212,100.529L265.425,98.155Z" style="fill:none;stroke:rgb(13,2,2);stroke-width:1.29px;"/>
                <path d="M277.674,112.64C280.808,112.65 282.156,113.982 280.702,117.388L277.674,112.64Z" style="fill:none;stroke:rgb(13,2,2);stroke-width:1.29px;"/>
                <path d="M314.65,188.719L315.156,193.827L313.725,194.268L313.24,188.741L314.65,188.719Z" style="fill:none;stroke:rgb(13,2,2);stroke-width:1.29px;"/>
                <path d="M298.04,181.804C297.066,177.934 296.695,174.366 298.108,171.689L309.979,171.964C309.979,171.964 311.332,178.771 310.391,180.428C309.451,182.085 306.354,181.714 304.336,181.908L298.04,181.804Z" style="fill:none;stroke:rgb(13,2,2);stroke-width:1.29px;"/>
                <path d="M280.114,181.22L279.907,158.339L292.431,158.167C300.084,157.745 305.457,160.172 308.706,165.255C308.737,166.28 300.419,164.568 297.661,164.876C290.906,165.633 290.668,174.313 291.33,181.804L280.114,181.22Z" style="fill:none;stroke:rgb(13,2,2);stroke-width:1.29px;"/>
                <path d="M280.203,188.624L306.075,188.624C307.119,193.176 307.858,198.408 308.007,202.736L292.635,204.92C287.616,209.21 288.996,217.93 292.719,228.272C299.159,228.732 305.599,227.505 312.039,225.5L311.955,228.692C294.703,234.925 287.24,232.858 280.371,230.288L280.203,188.624Z" style="fill:none;stroke:rgb(13,2,2);stroke-width:1.29px;"/>
                <path d="M296.079,211.136C295.741,215.496 296.416,218.732 297.423,221.972C301.738,221.932 306.183,220.781 310.947,216.932L309.267,209.372C304.871,210.081 300.475,210.651 296.079,211.136Z" style="fill:none;stroke:rgb(13,2,2);stroke-width:1.29px;"/>
                <path d="M279.447,237.848C290.855,239.851 301.75,239.597 312.039,236.672L312.375,250.112C307.211,261.147 294.494,260.502 278.355,255.404L279.447,237.848Z" style="fill:none;stroke:rgb(13,2,2);stroke-width:1.29px;"/>
                <path d="M260.127,224.324C265.349,218.759 270.854,213.205 268.107,207.356C265.832,205.184 262.153,209.565 258.195,215.252C258.789,201.35 263.76,192.782 273.315,189.8L273.315,222.896L260.127,224.324Z" style="fill:none;stroke:rgb(13,2,2);stroke-width:1.29px;"/>
                <path d="M248.367,223.736C243.446,202.516 251.831,187.808 273.231,179.468L273.231,181.988C258.085,185.867 250.408,198.213 252.063,221.132L248.367,223.736Z" style="fill:none;stroke:rgb(13,2,2);stroke-width:1.29px;"/>
                <path d="M264.831,231.212L273.147,236.42L273.147,230.708L264.831,231.212Z" style="fill:none;stroke:rgb(13,2,2);stroke-width:1.29px;"/>
                <path d="M254.331,229.364C259.605,236.644 265.632,241.516 272.307,244.316C263.253,242.943 256.412,238.325 251.559,230.792L254.331,229.364Z" style="fill:none;stroke:rgb(13,2,2);stroke-width:1.29px;"/>
                <path d="M246.246,234.698C252.877,242.963 260.859,249.148 271.131,251.813L270.921,264.098L186.815,264.833L186.605,232.808C196.572,230.739 211.142,230.795 231.545,233.543C231.545,233.543 226.618,237.123 223.756,237.309C220.256,237.537 212.242,233.996 210.545,234.908C206.991,236.819 211.764,242.18 213.859,241.924C213.197,241.483 208.574,245.996 209.075,247.928C209.595,249.931 216.243,249.384 217.055,248.978C217.055,248.978 214.938,255.018 216.845,255.803C219.81,257.024 226.978,247.963 229.025,245.828C229.68,245.146 229.13,242.993 229.13,242.993L246.246,234.698Z" style="fill:none;stroke:rgb(13,2,2);stroke-width:1.29px;"/>
                <path d="M242.255,226.823C235.728,196.934 249.06,180.585 273.336,171.698L273.336,155.213C273.4,153.032 274.67,151.408 278.376,150.908C278.016,136.383 277.207,122.269 270.081,113.948C266.592,113.054 265.589,111.166 266.301,108.593L260.421,103.238C253.439,108.929 250.707,107.381 251.286,100.193L241.94,99.458C239.665,101.121 237.39,100.944 235.115,99.248C224.012,96.668 208.281,101.744 201.095,107.648C198.014,110.179 194.451,112.749 193.01,116.468C190.333,123.38 185.257,135.805 185.03,149.123C186.258,152.085 186.392,154.421 185.66,156.263L186.71,166.133C200.183,172.886 224.232,159.268 226.085,156.683C228.954,152.682 232.066,163.597 226.4,167.813C211.074,193.799 200.02,188.033 187.025,187.658L187.13,225.248C202.499,224.437 221.84,225.391 242.255,226.823Z" style="fill:none;stroke:rgb(13,2,2);stroke-width:1.29px;"/>
            </g>
            <path d="M169.042,355.229C158.488,356.278 145.521,360.953 136.496,362.922C132.313,363.835 105.916,367.406 102.095,367.448C94.482,367.53 87.041,368.006 82.797,367.275C81.77,367.098 80.472,366.615 79.235,366.049C69.517,361.612 100.55,356.037 132.11,350.767C159.222,346.24 191.041,349.57 191.041,349.57C201.398,349.078 205.817,346.387 205.688,336.473L204.45,271.583C204.45,271.583 189.975,272.384 185.997,272.322C180.647,272.239 180.626,271.186 180.347,270.242C178.883,265.284 180.836,219.254 180.2,216.286C179.973,215.226 159.022,199.268 150.526,191.274C149.492,190.3 132.667,188.875 132.984,187.664C133.055,187.391 131.622,184.246 132.987,182.754C134.328,181.287 139.224,181.646 138.924,181.21C134.996,175.507 140.166,173.141 148.122,177.53C148.42,177.694 148.299,176.362 148.576,174.214C148.739,172.95 147.584,170.964 147.89,169.673C148.348,167.738 150.351,166.998 151.075,167.44C155.077,169.881 156.054,180.577 155.853,185.291C155.708,188.686 160.761,190.52 163.593,192.853C165.502,194.425 178.254,207.49 179.942,206.87C180.499,206.665 180.279,205.41 180.255,204.73C179.971,196.81 178.391,175.524 178.349,156.928C176.426,157.062 166.502,157.899 166.8,152.633C167.346,147.629 178.239,150.231 178.391,149.37C178.829,138.831 180.625,129.581 183.546,121.811C175.128,117.504 174.357,114.918 173.839,107.251C173.629,100.979 177.864,98.917 182.745,99.36C184.992,94.514 186.774,86.983 193.059,89.596C194.948,79.954 199.238,76.972 206.249,87.995C211.296,81.794 217.128,80.879 223.606,85.582C231.352,77.938 237.739,76.976 241.658,87.012C249.522,78.895 256.393,76.618 258.996,94.033C271.619,84.281 282.243,79.128 274.049,106.334C289.421,105.548 291.773,113.175 283.517,126.641C284.08,132.601 285.033,144.485 285.522,151.431C297.781,151.765 320.916,148.333 316.561,182.813C322.144,187.282 325.058,194.673 315.37,200.722C318.024,223.649 321.951,251.917 315.352,258.385C309.436,265.853 292.832,266.032 277.707,263.85C276.799,266.628 275.543,269.688 273.655,271.485L253.408,271.728C253.226,292.12 251.122,309.765 253.307,333.537C254.615,339.678 259.349,342.994 267.518,343.955C294.143,347.79 327.498,346.881 350.714,346.761C367.241,346.675 376.674,349.793 376.853,354.887C374.087,367.149 347.756,374.384 328.095,373.609C338.05,367.291 347.839,361.217 346.126,358.983C336.55,351.162 296.498,354.012 263.516,354.185C255.965,361.729 245.918,344.188 246.705,340.823L246.267,271.059L211.145,271.667L212.093,341.971C209.449,348.373 205.134,354.354 199.312,356.079C192.242,358.175 179.26,354.212 169.042,355.229ZM280.203,188.624L280.371,230.288C287.24,232.858 294.703,234.925 311.955,228.692L312.039,225.5C305.599,227.505 299.159,228.732 292.719,228.272C288.996,217.93 287.616,209.21 292.635,204.92L308.007,202.736C307.858,198.408 307.119,193.176 306.075,188.624L280.203,188.624ZM242.255,226.823C235.728,196.934 249.06,180.585 273.336,171.698L273.336,155.213C273.4,153.032 274.67,151.408 278.376,150.908C278.016,136.383 277.207,122.269 270.081,113.948C266.592,113.054 265.589,111.166 266.301,108.593L260.421,103.238C253.439,108.929 250.707,107.381 251.286,100.193L241.94,99.458C239.665,101.121 237.39,100.944 235.115,99.248C224.012,96.668 208.281,101.744 201.095,107.648C198.014,110.179 194.451,112.749 193.01,116.468C190.333,123.38 185.257,135.805 185.03,149.123C186.258,152.085 186.392,154.421 185.66,156.263L186.71,166.133C200.183,172.886 224.232,159.268 226.085,156.683C228.954,152.682 232.066,163.597 226.4,167.813C211.074,193.799 200.02,188.033 187.025,187.658L187.13,225.248C202.499,224.437 221.84,225.391 242.255,226.823ZM264.831,231.212L273.147,236.42L273.147,230.708L264.831,231.212ZM260.127,224.324L273.315,222.896L273.315,189.8C263.76,192.782 258.789,201.35 258.195,215.252C262.153,209.565 265.832,205.184 268.107,207.356C270.854,213.205 265.349,218.759 260.127,224.324ZM279.447,237.848L278.355,255.404C294.494,260.502 307.211,261.147 312.375,250.112L312.039,236.672C301.75,239.597 290.855,239.851 279.447,237.848ZM296.079,211.136C295.741,215.496 296.416,218.732 297.423,221.972C301.738,221.932 306.183,220.781 310.947,216.932L309.267,209.372C304.871,210.081 300.475,210.651 296.079,211.136ZM248.367,223.736L252.063,221.132C250.408,198.213 258.085,185.867 273.231,181.988L273.231,179.468C251.831,187.808 243.446,202.516 248.367,223.736ZM254.331,229.364L251.559,230.792C256.412,238.325 263.253,242.943 272.307,244.316C265.632,241.516 259.605,236.644 254.331,229.364ZM186.313,173.491C186.238,173.87 185.946,178.968 187.427,179.394C190.65,180.323 197.515,181.62 200.454,181.344C212.549,180.206 210.708,177.027 214.697,172.269C208.308,175.946 189.26,174.76 186.313,173.491ZM265.425,98.155L268.212,100.529L270.105,94.473L265.425,98.155ZM277.674,112.64L280.702,117.388C282.156,113.982 280.808,112.65 277.674,112.64ZM246.846,92.718L251.422,92.959L251.422,87.97C249.272,88.881 247.803,90.523 246.846,92.718ZM314.65,188.719L313.24,188.741L313.725,194.268L315.156,193.827L314.65,188.719ZM298.04,181.804L304.336,181.908C306.354,181.714 309.451,182.085 310.391,180.428C311.332,178.771 309.979,171.964 309.979,171.964L298.108,171.689C296.695,174.366 297.066,177.934 298.04,181.804ZM180.992,108.683C181.094,108.99 180.934,113.866 183.985,115.392C184.906,115.852 184.935,115.705 185.946,115.771C183.706,115.024 182.13,110.39 180.992,108.683ZM280.114,181.22L291.33,181.804C290.668,174.313 290.906,165.633 297.661,164.876C300.419,164.568 308.737,166.28 308.706,165.255C305.457,160.172 300.084,157.745 292.431,158.167L279.907,158.339L280.114,181.22ZM210.926,94.851C215.662,94.551 218.381,93.145 217.428,89.725C213.973,89.303 211.72,90.87 210.926,94.851ZM213.57,241.926C211.363,241.718 207.146,236.735 210.545,234.908C212.242,233.996 220.256,237.537 223.756,237.309C226.618,237.123 231.545,233.543 231.545,233.543C211.142,230.795 196.572,230.739 186.605,232.808L186.815,264.833L270.921,264.098L271.131,251.813C260.859,249.148 252.877,242.963 246.246,234.698L229.13,242.993C229.13,242.993 229.68,245.146 229.025,245.828C226.978,247.963 219.81,257.024 216.845,255.803C214.938,255.018 217.055,248.978 217.055,248.978C216.243,249.384 209.595,249.931 209.075,247.928C208.621,246.18 212.363,242.319 213.57,241.926ZM213.57,241.926C213.67,241.936 213.767,241.935 213.859,241.924C213.796,241.882 213.697,241.885 213.57,241.926ZM189.766,109.956C189.766,109.956 191.375,108.483 191.981,107.927C192.122,107.798 192.184,107.603 192.142,107.415C191.606,105.047 190.713,102.892 189.766,100.769C188.536,103.832 188.518,106.894 189.766,109.956ZM198.918,100.597L202.668,98.327L199.675,91.445L198.918,100.597ZM226.959,92.581C228.975,92.6 231.36,92.539 235.492,92.099C235.384,89.812 234.877,88.124 234.219,86.663C231.137,87.879 228.757,89.897 226.959,92.581Z" style="fill:white;"/>
        </g>
        <g id="InterestingIcon">
        </g>
    </g>
</svg>
