<?xml version="1.0" encoding="UTF-8" standalone="no"?>
<!DOCTYPE svg PUBLIC "-//W3C//DTD SVG 1.1//EN" "http://www.w3.org/Graphics/SVG/1.1/DTD/svg11.dtd">
<svg width="100%" height="100%" viewBox="0 0 44 35" version="1.1" xmlns="http://www.w3.org/2000/svg" xmlns:xlink="http://www.w3.org/1999/xlink" xml:space="preserve" xmlns:serif="http://www.serif.com/" style="fill-rule:evenodd;clip-rule:evenodd;stroke-linecap:round;stroke-linejoin:round;stroke-miterlimit:1.5;">
    <g transform="matrix(1,0,0,1,-559,-10)">
        <rect id="Artboard1" x="0" y="0" width="4560" height="4560" style="fill:none;"/>
        <g id="Artboard11" serif:id="Artboard1">
            <g id="PersonIcon">
            </g>
            <g id="InterestingIcon">
            </g>
            <g id="pin">
            </g>
            <g id="EmailIcon">
                <path d="M560.287,15.353C560.138,13.276 560.918,12.26 562.452,12.106L598.169,12.242C600.2,12.146 601.385,13.044 601.371,15.353L601.597,40.202C601.823,42.552 600.694,43.715 598.034,43.539L563.489,43.675C561.312,44.05 560.375,42.938 560.603,40.427L560.287,15.353ZM581.015,31.444C581.015,31.444 593.095,21.871 596.45,19.211C596.809,18.927 597.032,18.506 597.067,18.05C597.101,17.594 596.943,17.144 596.631,16.809C596.292,16.447 595.844,16.274 595.306,16.258C594.461,16.235 593.634,16.499 592.96,17.008L580.939,26.081C580.939,26.081 571.143,18.645 568.874,16.922C568.199,16.41 567.37,16.145 566.523,16.169C565.989,16.184 565.544,16.354 565.205,16.71C564.889,17.045 564.729,17.497 564.763,17.955C564.797,18.414 565.022,18.837 565.384,19.122L581.015,31.444Z"/>
                <g transform="matrix(1,0,0,1,-0.0450984,0)">
                    <path d="M581.06,31.444C581.06,31.444 568.817,21.793 565.429,19.122C565.067,18.837 564.842,18.414 564.808,17.955C564.774,17.497 564.934,17.045 565.25,16.71C565.589,16.354 566.034,16.184 566.568,16.169C567.415,16.145 568.244,16.41 568.919,16.922C571.188,18.645 580.984,26.081 580.984,26.081C580.984,26.081 590.749,18.711 593.005,17.008C593.679,16.499 594.507,16.235 595.351,16.258C595.89,16.274 596.338,16.447 596.676,16.809C596.988,17.144 597.146,17.594 597.112,18.05C597.077,18.506 596.854,18.927 596.495,19.211C593.141,21.871 581.06,31.444 581.06,31.444Z" style="fill:none;stroke:black;stroke-width:0.93px;"/>
                </g>
                <path d="M560.287,15.353C560.138,13.276 560.918,12.26 562.452,12.106L598.169,12.242C600.2,12.146 601.385,13.044 601.371,15.353L601.597,40.202C601.823,42.552 600.694,43.715 598.034,43.539L563.489,43.675C561.312,44.05 560.375,42.938 560.603,40.427L560.287,15.353Z" style="fill:none;stroke:black;stroke-width:0.93px;"/>
            </g>
        </g>
    </g>
</svg>
