<?xml version="1.0" encoding="UTF-8" standalone="no"?>
<!DOCTYPE svg PUBLIC "-//W3C//DTD SVG 1.1//EN" "http://www.w3.org/Graphics/SVG/1.1/DTD/svg11.dtd">
<svg width="100%" height="100%" viewBox="0 0 19 24" version="1.1" xmlns="http://www.w3.org/2000/svg" xmlns:xlink="http://www.w3.org/1999/xlink" xml:space="preserve" xmlns:serif="http://www.serif.com/" style="fill-rule:evenodd;clip-rule:evenodd;stroke-linecap:round;stroke-linejoin:round;stroke-miterlimit:1.5;">
    <g transform="matrix(1,0,0,1,-910,-16)">
        <rect id="poznej-mesto" serif:id="poznej mesto" x="0" y="0" width="4560" height="4560" style="fill:none;"/>
        <g id="poznej-mesto1" serif:id="poznej mesto">
            <g id="PersonIcon">
            </g>
            <g id="InterestingIcon">
            </g>
            <g id="pin">
            </g>
            <g id="EmailIcon">
            </g>
            <g id="LocationIcon">
            </g>
            <g id="phone_icon">
            </g>
            <g id="web_icon">
            </g>
            <g id="EnigmaIcon">
            </g>
            <g id="how_and_why_play_icon">
            </g>
            <g id="infocentrum_icon">
            </g>
            <g id="places_icon">
            </g>
            <g id="trase_map_icon">
                <path d="M920.325,18.556C921.691,17.369 922.647,17.476 923.223,18.784C926.702,17.634 928.819,22.884 925.345,24.031C927.1,24.129 927.247,25.873 925.664,26.678C927.242,26.636 927.714,25.489 927.467,23.621C929.065,20.113 927.663,17.723 924.181,17.561C922.007,16.56 920.795,17.001 920.325,18.556Z" style="fill:white;stroke:black;stroke-width:0.1px;"/>
                <path d="M910.739,28.446C910.928,27.736 911.682,27.388 912.935,27.362L912.935,26.678L918.411,23.369L919.295,23.369L921.891,21.852L922.946,23.883L920.95,25.166L920.95,27.926L920.325,29.159C922.154,31.658 919.454,34.897 916.13,33.466C914.501,34.423 916.479,36.182 916.643,37.059C916.82,38.006 913.748,38.965 912.935,38.285C911.564,37.138 912.253,34.779 912.37,33.305C912.429,32.56 911.401,31.985 911.456,31.297C911.507,30.663 913.034,30.241 912.935,29.416C912.635,28.403 911.801,28.242 910.739,28.446ZM916.643,31.45C916.491,31.928 916.616,32.082 917.12,32.467C917.559,32.769 918.043,32.694 918.545,32.467C919.997,31.281 920.03,30.012 918.673,29.708C918.128,29.586 916.927,30.122 917.786,31.45L916.643,31.45Z" style="fill:white;stroke:black;stroke-width:0.1px;"/>
            </g>
            <g id="unnamed_icon">
            </g>
        </g>
    </g>
</svg>
